<?xml version="1.0" encoding="UTF-8" standalone="no"?> <!-- Created with Vectornator for iOS (http://vectornator.io/) --><!DOCTYPE svg PUBLIC "-//W3C//DTD SVG 1.1//EN" "http://www.w3.org/Graphics/SVG/1.1/DTD/svg11.dtd">
<svg style="fill-rule:evenodd;clip-rule:evenodd;stroke-linecap:round;stroke-linejoin:round;" xmlns:vectornator="http://vectornator.io" xmlns:xlink="http://www.w3.org/1999/xlink" xmlns="http://www.w3.org/2000/svg" xml:space="preserve" version="1.1" viewBox="0 0 375 375">
<metadata>
<vectornator:setting key="DynamicGuides" value="1"/>
<vectornator:setting key="Units" value="Points"/>
<vectornator:setting key="GuidesVisible" value="1"/>
<vectornator:setting key="RulersVisible" value="1"/>
<vectornator:setting key="SnapToGuides" value="1"/>
<vectornator:setting key="GridSpacing" value="36"/>
</metadata>
<defs>
<path d="M244.438+108.002L307.862+108.002L307.862+237.845L244.438+237.845L244.438+108.002Z" id="Mask"/>
<path d="M290.047+97.5592L348.336+194.664L245.924+249.932L187.635+152.828L290.047+97.5592Z" id="Mask_2"/>
<path d="M348.415+194.786L290.12+97.682L187.708+152.951L245.998+250.06L348.415+194.786Z" id="Mask_3"/>
<path d="M67.1376+109.369L130.562+109.369L130.562+237.845L67.1376+237.845L67.1376+109.369Z" id="Mask_4"/>
<path d="M26.3486+194.498L85.1728+97.682L187.28+153.458L128.456+250.274L26.3486+194.498Z" id="Mask_5"/>
<path d="M26.3486+194.498L85.1728+97.682L187.28+153.458L128.456+250.274L26.3486+194.498Z" id="Mask_6"/>
</defs>
<g id="surface1" vectornator:layerName="surface1">
<path d="M-82.7749-68.7683L457.775-68.7683L457.775-68.7683L457.775+443.768L457.775+443.768L-82.7749+443.768L-82.7749+443.768L-82.7749-68.7683L-82.7749-68.7683Z" opacity="1" fill="#153630"/>
<path d="M-82.7749-68.7683L457.775-68.7683L457.775-68.7683L457.775+443.768L457.775+443.768L-82.7749+443.768L-82.7749+443.768L-82.7749-68.7683L-82.7749-68.7683Z" opacity="1" fill="none"/>
<path d="M-82.7749-68.7683L457.775-68.7683L457.775-68.7683L457.775+443.768L457.775+443.768L-82.7749+443.768L-82.7749+443.768L-82.7749-68.7683L-82.7749-68.7683Z" opacity="1" fill="none"/>
<g opacity="1" vectornator:mask="#Mask">
<clipPath id="ClipPath">
<use xlink:href="#Mask" fill="none" overflow="visible"/>
</clipPath>
<g clip-path="url(#ClipPath)">
<g opacity="1" vectornator:mask="#Mask_2">
<clipPath id="ClipPath_2">
<use xlink:href="#Mask_2" fill="none" overflow="visible"/>
</clipPath>
<g clip-path="url(#ClipPath_2)">
<g opacity="1" vectornator:mask="#Mask_3">
<clipPath id="ClipPath_3">
<use xlink:href="#Mask_3" fill="none" overflow="visible"/>
</clipPath>
<g clip-path="url(#ClipPath_3)">
<path d="M292.671+124.019C292.316+124.019+291.95+124.062+291.59+124.136C291.95+124.099+292.305+124.056+292.671+124.019ZM267.524+122.193C267.462+122.113+267.389+122.027+267.299+121.963L267.186+121.91L267.18+121.91L267.186+121.915C267.085+121.974+266.989+122.364+267.028+122.545L267.045+122.615C267.079+122.62+267.107+122.631+267.141+122.631C267.169+122.631+267.203+122.631+267.237+122.631C267.361+122.513+267.456+122.359+267.524+122.193ZM263.098+125.888C263.2+125.727+263.222+125.535+263.228+125.348C263.115+125.306+263.002+125.279+262.884+125.311C262.591+125.386+262.648+125.674+262.805+125.834C262.952+125.978+263.031+125.989+263.098+125.888ZM269.771+145.054C269.742+145.044+269.686+145.033+269.635+145.028C269.506+145.012+269.365+145.033+269.236+145.049C269.151+145.054+269.106+145.092+269.072+145.134L269.089+145.145C269.151+145.236+269.191+145.316+269.224+145.412C269.23+145.439+269.258+145.508+269.275+145.556L269.286+145.551C269.461+145.492+269.675+145.268+269.771+145.054ZM266.6+146.314C266.612+146.181+266.572+146.053+266.488+145.967C266.493+146.09+266.432+146.213+266.28+146.282C266.156+146.341+266.009+146.426+265.964+146.474L265.975+146.49C266.049+146.565+266.15+146.619+266.251+146.656C266.437+146.608+266.555+146.474+266.6+146.314ZM264.675+148.53C264.663+148.439+264.647+148.354+264.618+148.268C264.573+148.172+264.506+148.097+264.376+148.065C264.067+147.996+263.757+148.129+263.532+148.322C263.757+148.626+264.134+148.727+264.495+148.615C264.562+148.599+264.618+148.567+264.675+148.53ZM277.975+173.735C278.02+173.751+278.07+173.767+278.115+173.794C278.16+173.815+278.205+173.842+278.25+173.874C278.189+173.778+278.127+173.682+278.065+173.585C278.031+173.639+278.003+173.687+277.975+173.735ZM267.772+208.769C268.042+208.47+268.29+208.16+268.521+207.84C268.402+207.696+268.335+207.52+268.352+207.317C268.363+207.034+268.425+206.751+268.498+206.468C268.267+206.922+267.98+207.354+267.62+207.749C267.715+207.979+267.496+208.15+267.282+208.134C267.225+208.545+267.192+208.966+267.209+209.372C267.406+209.175+267.597+208.972+267.772+208.769ZM268.301+195.251C268.211+195.155+268.087+195.085+267.986+195.011C267.918+194.968+267.856+194.963+267.805+194.973L267.805+195C267.789+195.101+267.766+195.187+267.721+195.283C267.704+195.304+267.676+195.374+267.659+195.422L267.665+195.422C267.839+195.486+268.16+195.459+268.38+195.358C268.363+195.336+268.335+195.288+268.301+195.251ZM265.289+193.964C265.21+194.06+265.075+194.114+264.911+194.071C264.782+194.039+264.613+194.007+264.545+194.018L264.545+194.028C264.545+194.135+264.579+194.236+264.635+194.327C264.799+194.413+264.984+194.391+265.131+194.295C265.232+194.204+265.294+194.087+265.289+193.964ZM262.282+194.503C262.31+194.407+262.315+194.306+262.242+194.199C262.056+193.953+261.73+193.857+261.431+193.863C261.386+194.226+261.595+194.535+261.944+194.685C262.006+194.712+262.073+194.728+262.135+194.733C262.192+194.664+262.237+194.583+262.282+194.503ZM285.233+214.877C285.458+214.871+285.638+214.652+285.745+214.476C285.767+214.199+285.683+213.814+285.396+213.862C285.34+213.873+285.294+213.894+285.244+213.916C284.979+214.124+284.822+214.594+284.94+214.893C285.047+214.882+285.154+214.877+285.233+214.877ZM305.025+188.161C305.092+188.038+305.137+187.894+305.126+187.76C304.912+187.846+304.709+188.118+304.653+188.294L304.63+188.374C304.771+188.316+304.901+188.246+305.025+188.161ZM301.764+187.205C301.793+187.146+301.815+187.093+301.821+187.056C301.849+186.97+301.86+186.874+301.866+186.773C301.742+186.623+301.449+186.463+301.353+186.602C301.218+186.783+301.151+187.178+301.28+187.397C301.32+187.397+301.365+187.397+301.427+187.381C301.539+187.349+301.663+187.285+301.764+187.205ZM298.949+169.138L298.932+169.154L298.949+169.149L298.949+169.138ZM295.908+165.796C296.015+165.065+296.196+164.322+296.415+163.591C296.117+164.301+295.953+165.038+295.908+165.796ZM288.667+174.797L288.634+174.781L288.634+174.803L288.667+174.797ZM289.045+152.566C288.994+152.502+288.954+152.427+288.926+152.347C288.949+152.454+288.971+152.555+289+152.657C289.016+152.625+289.028+152.598+289.045+152.566ZM283.448+109.465C283.673+109.839+283.887+110.244+284.095+110.666C285.57+112.001+285.908+114.393+285.756+116.592C285.79+117.281+285.756+117.959+285.632+118.616C285.756+118.605+285.886+118.568+286.021+118.493C286.438+118.269+286.82+118.007+287.186+117.719C287.817+116.982+288.56+116.31+289.371+115.744C289.945+115.188+290.531+114.649+291.173+114.179L291.173+114.174C291.241+114.126+291.308+114.072+291.376+114.03C291.888+113.672+292.361+113.918+292.581+114.329C292.631+114.318+292.682+114.307+292.727+114.297C292.924+114.265+293.104+114.361+293.121+114.558C293.251+115.989+291.742+116.923+290.638+117.596C290.385+117.746+290.126+117.917+289.861+118.082C289.225+118.659+288.583+119.23+287.963+119.817C289.596+119.983+291.252+120.543+292.727+121.312C294.107+121.963+295.379+122.828+296.46+123.864C296.646+124.046+296.55+124.398+296.252+124.393C296.032+124.393+295.762+124.403+295.458+124.425C295.199+124.644+294.827+124.734+294.478+124.51L294.473+124.505C292.885+124.649+290.773+124.889+288.853+124.857C288.082+125.044+287.316+125.151+286.578+125.033C285.869+124.916+285.34+124.558+284.974+124.078C284.399+123.725+284.011+123.239+283.909+122.561C282.885+124.195+281.589+125.717+280.61+127.324C279.771+128.712+279.213+130.233+278.785+131.771C278.628+132.332+278.543+132.866+278.504+133.389C280.469+137.441+282.102+141.675+283.363+146.053C283.425+145.941+283.481+145.834+283.532+145.732C283.881+145.086+284.523+143.928+285.424+143.933C285.587+143.938+285.722+144.045+285.728+144.2C285.784+145.626+284.754+146.891+283.909+148.028C284.985+152.144+285.734+156.389+286.133+160.724C286.747+158.428+287.519+156.149+288.436+153.949C288.527+153.73+288.628+153.495+288.724+153.271C288.172+152.507+288.076+151.488+288.194+150.468C288.003+149.256+288.296+147.937+289.005+146.96C289.191+146.709+289.433+146.592+289.681+146.571C289.698+146.544+289.72+146.517+289.737+146.496C290.39+144.761+291.578+143.314+293.498+142.748C293.707+142.689+293.949+142.726+294.152+142.839C294.275+142.78+294.394+142.716+294.512+142.657C294.67+142.588+294.895+142.657+294.895+142.849C294.906+144.632+294.962+146.576+294.58+148.38C294.157+151.178+292.857+153.762+289.726+153.693L289.653+153.682C289.467+153.703+289.281+153.714+289.09+153.714C289.016+153.869+288.949+154.018+288.881+154.173C287.862+156.528+287.22+159.01+286.24+161.37C286.229+161.402+286.212+161.418+286.184+161.429C286.28+162.534+286.353+163.644+286.398+164.766C286.595+169.603+286.342+174.36+285.689+179.004C286.359+177.83+287.248+176.741+288.194+175.737C287.958+175.096+287.969+174.354+288.132+173.607C288.183+172.534+288.814+171.082+288.96+170.558C289.14+169.902+290.21+169.715+290.542+170.371C290.987+171.252+291.004+172.422+290.204+173.094C290.041+173.527+289.827+173.943+289.596+174.36L289.568+174.424C291.471+172.817+293.718+171.599+295.571+169.939C295.711+169.731+295.875+169.517+296.06+169.293C296.117+169.229+296.19+169.186+296.269+169.143C296.173+169.074+296.1+168.978+296.06+168.85C294.292+166.228+295.807+163.105+297.468+160.564C297.53+160.393+297.592+160.222+297.654+160.057C297.75+159.795+297.941+159.619+298.166+159.528C298.33+159.299+298.493+159.069+298.645+158.85C298.769+158.674+299.107+158.706+299.146+158.935C299.197+159.24+299.242+159.549+299.281+159.87C299.315+159.934+299.349+159.998+299.371+160.078C300.12+162.555+299.704+166.266+298.042+168.364C297.935+168.497+297.8+168.604+297.654+168.679C297.53+168.85+297.401+169.021+297.26+169.186C297.31+169.218+297.356+169.25+297.395+169.293C297.429+169.33+297.468+169.368+297.502+169.41C297.569+169.394+297.631+169.384+297.693+169.373C298.352+168.759+299.152+168.198+300.024+167.729C301.663+166.661+304.101+165.412+305.903+166.132C306.072+166.202+306.19+166.341+306.258+166.506C306.387+166.57+306.46+166.693+306.421+166.848C306.196+167.638+305.531+168.102+304.76+168.412C304.343+168.61+303.893+168.754+303.414+168.877C302.784+169.031+302.136+169.133+301.494+169.256C301.213+169.325+300.931+169.389+300.644+169.453L300.61+169.464L300.571+169.496C300.283+169.715+299.884+169.843+299.535+169.672C299.107+169.747+298.684+169.8+298.262+169.816C301.776+170.9+304.687+173.511+306.224+176.671C306.337+176.896+306.123+177.205+305.847+177.104C304.253+176.527+299.749+175.849+297.018+174.429C295.514+173.772+294.523+172.865+294.844+171.439C293.307+172.635+291.561+173.634+290.081+174.824C288.791+175.86+287.727+177.109+286.77+178.423C285.869+179.656+285.463+180.857+285.159+182.261C282.423+197.098+275.497+210.648+265.553+221.721C265.852+221.63+266.156+221.54+266.454+221.433C266.516+221.412+266.572+221.422+266.629+221.438C267.946+220.579+269.061+219.329+270.519+218.747C285.294+212.875+292.885+194.001+295.711+188.246C295.407+188.214+295.12+188.081+294.917+187.787C294.546+187.242+294.81+186.628+295.255+186.228C295.295+186.105+295.357+185.988+295.452+185.881C295.7+185.598+296.151+185.475+296.505+185.625C296.562+185.646+296.607+185.673+296.646+185.699C296.899+185.694+297.142+185.732+297.372+185.817C297.569+185.892+297.643+186.132+297.609+186.308C297.569+186.532+297.485+186.746+297.372+186.933C297.35+187.595+296.674+188.155+295.998+188.241C294.253+192.469+292.254+196.628+290.345+200.787C290.283+200.921+290.216+201.044+290.154+201.177C291.038+200.467+292.012+199.874+292.857+199.116C294.146+197.952+295.272+196.639+296.376+195.326C296.505+195.181+296.624+195.032+296.742+194.888C296.353+194.215+296.162+193.473+296.269+192.699C296.308+192.384+296.398+191.957+296.573+191.578C296.387+191.471+296.263+191.273+296.212+191.033C296.128+190.547+296.274+190.029+296.578+189.629C296.849+189.277+297.265+189.122+297.688+189.223C297.981+189.18+298.273+189.234+298.504+189.458C298.774+189.72+298.825+190.024+298.735+190.296C298.735+190.328+298.746+190.355+298.746+190.387C298.746+190.606+298.656+190.793+298.515+190.948C298.279+191.401+297.806+191.738+297.265+191.684C297.091+191.983+296.978+192.314+296.899+192.645C296.759+193.249+296.787+193.964+297.006+194.573C298.628+192.603+300.103+190.606+301.179+188.321C299.664+188.161+299.523+185.924+300.987+185.326C301.9+184.957+302.429+185.561+302.586+186.313C302.868+186.693+302.941+187.189+302.575+187.654C302.485+187.771+302.367+187.867+302.237+187.958C302.108+188.091+301.945+188.203+301.764+188.262C301.736+188.289+301.697+188.305+301.652+188.316L301.595+188.321C301.308+189.65+300.548+190.926+299.647+192.128C301.297+191.231+302.249+189.725+303.577+188.438C303.448+187.579+304.163+186.506+305.148+186.799C305.199+186.815+305.233+186.837+305.278+186.858C305.638+186.837+305.987+186.97+306.241+187.344C306.686+188.011+305.948+188.753+305.16+189.111C304.985+189.229+304.799+189.293+304.602+189.293C304.253+189.362+303.955+189.319+303.814+189.127L303.758+189.09C303.729+189.068+303.713+189.036+303.701+189.004C302.722+190.547+301.156+192.272+299.287+192.603C298.527+193.569+297.71+194.477+297.018+195.31C295.154+197.573+292.862+200.365+289.979+201.545C288.211+205.219+286.043+208.513+283.132+211.513C280.345+214.386+277.164+216.719+273.69+218.737C275.418+218.651+277.085+218.491+278.785+217.936C280.75+217.301+282.361+216.163+284.033+215.053C283.983+214.861+283.966+214.658+283.988+214.46C284.067+213.889+284.41+213.307+284.951+213.024C285.559+212.709+286.37+212.928+286.674+213.531C286.933+214.054+286.781+214.652+286.432+215.101C286.409+215.149+286.392+215.197+286.37+215.24C286.077+215.774+285.458+216.025+284.85+215.875C284.546+215.8+284.32+215.624+284.18+215.4C282.372+217.114+279.866+218.31+277.243+218.865C278.341+219.543+279.41+219.772+280.722+219.847C281.432+219.885+282.181+219.805+282.913+219.783C282.913+219.735+282.913+219.687+282.924+219.634C283.031+218.806+283.988+218.395+284.731+218.758C284.776+218.779+284.816+218.811+284.855+218.838C284.889+218.849+284.917+218.854+284.945+218.865C285.689+219.148+285.903+219.938+285.447+220.531C285.401+220.589+285.351+220.643+285.294+220.691C285.187+220.878+285.019+221.038+284.822+221.155C284.546+221.486+284.016+221.449+283.633+221.187C283.611+221.171+283.594+221.155+283.577+221.139C283.538+221.113+283.51+221.091+283.476+221.064L283.431+221.022C283.397+220.984+283.358+220.947+283.324+220.91C283.194+220.76+283.098+220.595+283.025+220.413C282.147+220.461+281.207+220.37+280.401+220.29C279.337+220.178+277.648+220.013+277.045+219.02C277.023+218.982+277.029+218.945+277.045+218.908C275.655+219.185+274.236+219.292+272.884+219.196C272.501+219.415+272.119+219.628+271.724+219.837C269.517+221.011+267.237+222.09+265.114+223.403C264.185+223.98+263.273+224.599+262.315+225.127C261.116+226.329+259.877+227.498+258.605+228.63C255.88+230.621+253.295+232.794+250.468+234.657C249.438+235.341+248.363+235.96+247.259+236.537C246.555+236.627+245.851+236.724+245.147+236.825C250.367+233.664+255.187+229.986+259.556+225.875C260.39+224.263+261.167+222.629+261.837+220.963C261.752+220.92+261.668+220.867+261.567+220.803C260.823+220.258+260.412+219.142+260.694+218.294C260.79+218.021+261.156+218.027+261.33+218.208C261.752+218.641+262.141+219.078+262.366+219.586C262.811+218.358+263.205+217.108+263.509+215.822C263.926+214.097+264.168+212.367+264.314+210.632C263.492+210.541+262.563+210.413+261.859+210.002C261.285+209.666+260.818+208.918+261.375+208.374C261.826+207.941+262.732+208.47+263.132+208.689C263.47+208.876+263.779+209.105+264.055+209.351C264.191+209.474+264.286+209.607+264.382+209.741C264.517+207.701+264.528+205.651+264.528+203.585C264.41+203.259+264.185+202.987+263.898+202.763C263.757+202.95+263.537+203.078+263.261+203.099C262.912+203.291+262.462+203.323+262.062+203.35C262+203.355+261.944+203.35+261.888+203.35C261.854+203.35+261.82+203.35+261.786+203.35C261.274+203.355+260.761+203.275+260.26+203.168C259.86+203.088+259.579+202.693+259.585+202.314C259.585+201.876+259.889+201.62+260.277+201.471C261.251+201.102+263.363+200.75+263.965+201.86C264.078+202.069+264.095+202.288+264.033+202.49C264.297+202.72+264.506+202.998+264.635+203.334C264.692+203.334+264.748+203.366+264.759+203.425C264.77+203.499+264.782+203.574+264.793+203.649C264.832+203.564+264.866+203.483+264.911+203.398C265.029+202.88+265.272+202.373+265.593+201.887C265.626+201.807+265.655+201.732+265.688+201.652L265.655+201.62C264.641+199.666+263.397+197.595+262.777+195.432C262.653+195.512+262.518+195.582+262.372+195.635C261.617+196.084+260.581+195.961+260.091+195.064C259.894+194.706+259.889+194.268+260.029+193.889C260.119+193.222+260.553+192.603+261.336+192.464C262.231+192.304+263.239+193.035+263.492+193.815C263.639+194.274+263.52+194.765+263.211+195.112C264.061+197.226+264.917+199.335+265.773+201.455C265.97+200.963+266.161+200.472+266.33+199.981C266.122+198.417+265.722+196.868+265.531+195.299C265.165+195.464+264.776+195.416+264.455+195.24C264.297+195.197+264.145+195.123+264.01+194.989C263.802+194.797+263.672+194.503+263.656+194.21C263.323+192.891+265.429+192.165+266.133+193.388C266.477+193.985+266.353+194.722+265.807+195.133C266.195+196.58+266.347+198.091+266.471+199.581C266.809+198.566+267.079+197.525+267.276+196.441C266.859+196.319+266.505+196.02+266.347+195.625C265.953+194.674+267.102+194.012+267.957+194.023C268.678+194.023+269.129+194.583+269.174+195.16C269.207+195.245+269.224+195.331+269.219+195.416C269.219+195.619+269.117+195.779+268.977+195.902C268.858+196.062+268.689+196.196+268.47+196.287C268.425+196.303+268.391+196.308+268.352+196.319C268.194+196.399+268.019+196.457+267.828+196.484C267.749+196.489+267.67+196.495+267.597+196.489C267.552+197.915+267.107+199.378+266.499+200.771C267.287+199.949+268.245+199.228+269.117+198.657C268.808+198.246+268.735+197.659+269.112+197.296C269.568+196.858+270.514+196.922+271.06+197.125C271.167+197.167+271.257+197.221+271.33+197.29C271.403+197.28+271.482+197.312+271.494+197.392C271.494+197.429+271.488+197.456+271.494+197.488C271.629+197.755+271.578+198.064+271.33+198.246C271.071+198.774+270.542+199.186+269.883+199.116C269.652+199.095+269.45+198.983+269.281+198.833C268.098+199.837+266.871+200.739+265.959+201.908C265.615+202.586+265.255+203.232+264.894+203.841L264.889+203.857L264.883+203.857L264.832+203.948C265.187+206.58+265.159+209.271+264.81+211.951C265.446+211.107+266.257+210.349+267.012+209.575C266.831+208.977+266.831+208.369+266.91+207.749L266.916+207.723C266.313+206.196+266.955+204.434+268.673+203.868C268.903+203.793+269.123+203.953+269.112+204.188C269.084+204.61+269.01+205.016+268.898+205.416C269.219+204.786+269.63+204.194+270.075+203.665C270.514+203.142+271.094+202.752+271.764+202.544C272.034+202.458+272.445+202.442+272.721+202.528C272.851+202.565+272.974+202.608+273.098+202.661C273.104+202.667+273.678+203.115+273.374+202.891C273.678+203.12+273.667+203.558+273.509+203.852C273.419+204.023+273.346+204.145+273.267+204.252C273.25+204.332+273.239+204.412+273.217+204.487C273.233+204.914+272.929+205.384+272.693+205.688C271.938+206.665+270.79+207.456+269.692+208.07C269.433+208.219+269.117+208.208+268.858+208.091C268.605+208.401+268.352+208.71+268.104+208.999C267.85+209.298+267.591+209.602+267.321+209.906C268.346+209.511+270.187+209.474+270.756+210.499C270.818+210.616+270.767+210.787+270.655+210.856C269.512+211.625+267.929+211.193+266.798+210.606C266.775+210.595+266.752+210.579+266.736+210.563C266.122+211.22+265.463+211.855+264.754+212.362C264.579+213.601+264.331+214.834+264.022+216.051C264.14+215.939+264.258+215.827+264.365+215.726C264.731+215.379+265.384+214.717+265.97+214.781C266.679+214.855+266.426+215.699+266.161+216.057C265.705+216.665+264.855+216.964+264.067+217.162C263.993+217.22+263.915+217.285+263.83+217.343C263.779+217.381+263.718+217.397+263.656+217.397C263.397+218.272+263.109+219.137+262.794+219.986C263.385+219.473+264.174+219.02+264.917+219.148C265.148+219.185+265.221+219.399+265.114+219.58C264.675+220.322+263.813+220.605+262.98+220.846C262.94+220.867+262.901+220.894+262.867+220.915C262.676+221.011+262.513+221.07+262.361+221.081C261.831+222.383+261.223+223.649+260.564+224.876C260.592+224.855+260.626+224.834+260.66+224.818C269.996+215.699+277.107+204.546+281.173+192.17C280.413+190.035+279.776+187.84+279.292+185.641C279.241+185.411+279.191+185.166+279.14+184.92C277.389+184.242+276.488+181.861+276.184+180.286C275.998+179.357+276.026+178.348+276.201+177.344C276.285+176.26+276.494+175.214+276.758+174.317C276.854+173.986+277.141+173.767+277.462+173.703C277.58+173.473+277.704+173.254+277.834+173.041C277.924+172.897+278.149+172.838+278.262+173.004C279.636+174.952+281.229+177.098+281.741+179.437C282.091+181.012+281.854+182.832+280.824+184.114C280.745+184.306+280.587+184.466+280.407+184.573C280.193+184.771+279.962+184.947+279.698+185.107C279.731+185.267+279.759+185.433+279.793+185.598C280.204+187.595+280.857+189.538+281.387+191.508C283.172+185.913+284.332+180.072+284.799+174.061C284.242+172.101+283.617+170.174+282.868+168.289C282.772+168.311+282.665+168.327+282.552+168.337C281.618+168.407+280.52+167.835+280.142+167.019C280.018+166.757+280.294+166.533+280.553+166.554C281.173+166.607+281.77+166.698+282.293+166.933C281.764+165.732+281.178+164.552+280.508+163.399C279.602+161.845+278.571+160.404+277.457+159.021C276.786+159.469+276.004+159.961+275.182+160.099C274.523+160.211+273.65+159.945+273.684+159.186C273.712+158.583+274.765+158.402+275.221+158.316C275.598+158.241+275.987+158.215+276.375+158.231C276.556+158.231+276.725+158.268+276.888+158.311C275.553+156.704+274.123+155.166+272.67+153.629C272.327+153.442+271.927+153.383+271.522+153.41L271.522+153.415C271.471+153.629+271.403+153.831+271.319+154.029C271.296+154.109+271.257+154.189+271.201+154.264C271.19+154.291+271.178+154.317+271.161+154.339C271.122+154.52+271.049+154.696+270.942+154.894C270.677+155.369+270.193+155.769+269.686+155.988C269.174+156.213+268.667+156.02+268.453+155.636C268.329+155.572+268.284+155.444+268.329+155.316L268.352+155.268C268.346+155.188+268.352+155.107+268.369+155.017C268.543+154.125+269.168+153.442+269.911+152.913C270.215+152.7+270.683+152.817+270.93+153.047C270.97+153.079+270.998+153.116+271.032+153.153C271.556+153.068+272.09+153.121+272.575+153.367C272.62+153.335+272.682+153.319+272.732+153.356C272.794+153.404+272.851+153.458+272.913+153.506C272.884+153.42+272.856+153.335+272.822+153.25C272.552+152.78+272.378+152.251+272.276+151.685C272.242+151.605+272.214+151.53+272.181+151.45L272.13+151.45C270.007+150.628+267.62+149.87+265.643+148.642L265.643+148.647C265.609+148.781+265.553+148.92+265.486+149.048C265.238+149.865+264.371+150.425+263.38+150.068C262.98+149.923+262.67+149.598+262.507+149.229C262.102+148.674+261.995+147.937+262.484+147.339C263.036+146.656+264.303+146.565+265.041+146.992C265.474+147.238+265.728+147.676+265.739+148.135C267.856+149.181+269.979+150.206+272.102+151.247C271.91+150.762+271.708+150.276+271.488+149.801C270.232+148.765+268.841+147.857+267.603+146.805C267.445+147.163+267.124+147.377+266.758+147.446C266.612+147.51+266.443+147.548+266.257+147.542C265.959+147.526+265.66+147.387+265.441+147.179C264.269+146.405+265.328+144.531+266.707+145.001C267.389+145.236+267.811+145.86+267.693+146.512C268.999+147.345+270.17+148.375+271.313+149.411C270.852+148.439+270.317+147.494+269.703+146.56C269.314+146.731+268.841+146.731+268.442+146.544C267.484+146.074+267.879+144.857+268.521+144.323C269.061+143.874+269.787+144.008+270.227+144.408C270.305+144.451+270.379+144.499+270.441+144.568C270.581+144.718+270.621+144.899+270.598+145.086C270.621+145.278+270.593+145.487+270.486+145.695C270.469+145.727+270.446+145.759+270.424+145.786C270.362+145.946+270.272+146.101+270.148+146.24C270.097+146.298+270.041+146.346+269.979+146.394C270.947+147.483+271.646+148.861+272.169+150.281C272.181+149.171+272.389+148.028+272.637+147.051C272.119+146.939+271.651+146.544+271.679+146.037C271.713+145.423+272.456+144.878+273.014+144.681C273.121+144.643+273.228+144.632+273.324+144.632C273.374+144.579+273.459+144.552+273.526+144.611C273.543+144.632+273.566+144.659+273.588+144.681C273.881+144.787+274.061+145.054+273.999+145.348C274.179+145.908+274.072+146.549+273.532+146.912C273.34+147.04+273.115+147.088+272.879+147.078C272.704+148.578+272.423+150.019+272.569+151.466C272.783+152.192+272.969+152.908+273.126+153.586L273.132+153.602L273.132+153.607C273.138+153.639+273.149+153.671+273.155+153.703C275.266+155.438+277.136+157.473+278.757+159.688C278.639+158.658+278.707+157.579+278.735+156.528C278.177+156.197+277.755+155.743+277.372+155.23L277.361+155.209C275.84+154.44+275.08+152.721+275.964+151.221C276.088+151.018+276.364+150.996+276.516+151.183C277.383+152.224+277.879+153.452+277.901+154.782C278.138+154.889+278.093+155.161+277.924+155.284C278.166+155.625+278.442+155.956+278.74+156.25C278.74+155.983+278.74+155.711+278.735+155.444C278.707+154.643+278.6+153.874+278.459+153.1C277.901+152.593+277.62+151.963+277.518+151.29C277.49+151.215+277.473+151.151+277.457+151.098C277.186+150.003+277.282+148.733+277.896+147.756C278.121+147.393+278.729+147.163+279.123+147.446C280.013+148.081+280.261+149.048+280.328+150.068C280.379+150.831+280.266+151.877+279.686+152.491C279.675+152.63+279.619+152.753+279.495+152.854C279.377+153.132+279.247+153.404+279.106+153.661C279.084+153.698+279.056+153.714+279.022+153.719C279.078+154.291+279.112+154.862+279.14+155.406C279.163+155.791+279.185+156.181+279.196+156.576C279.686+155.636+281.026+154.445+282.175+154.857C282.305+154.899+282.383+155.059+282.35+155.182C282.034+156.48+280.548+157.163+279.298+157.435C279.27+157.441+279.241+157.441+279.213+157.435C279.219+158.316+279.174+159.202+279.005+160.03C279.743+161.066+280.418+162.139+281.043+163.244C281.055+163.084+281.066+162.929+281.071+162.785C281.105+162.299+281.128+161.391+281.612+161.066C282.192+160.681+282.597+161.466+282.648+161.904C282.733+162.641+282.31+163.404+281.865+164.045C281.848+164.136+281.837+164.237+281.815+164.333C281.798+164.392+281.764+164.445+281.719+164.483C282.141+165.299+282.53+166.122+282.89+166.96C282.975+166.202+283.245+165.364+283.887+164.99C284.09+164.872+284.292+164.984+284.337+165.187C284.534+166.02+284.09+166.778+283.639+167.483C283.628+167.52+283.611+167.563+283.6+167.606C283.532+167.798+283.442+167.942+283.341+168.049C283.966+169.635+284.484+171.252+284.895+172.875C285.058+170.222+285.097+167.531+284.985+164.814C284.692+157.617+283.419+150.665+281.285+144.077C280.61+143.634+279.934+142.566+279.658+142.203C278.509+140.73+277.547+139.112+276.308+137.708C275.559+136.864+274.742+136.064+273.892+135.289C273.836+135.295+273.785+135.3+273.729+135.311C272.563+136.234+271.634+137.43+270.249+138.082C269.202+138.573+267.929+138.658+266.786+138.76C266.116+138.818+263.689+139.123+262.192+138.797C262.09+138.914+261.961+139.016+261.82+139.096C261.51+139.347+261.082+139.379+260.699+139.203C260.615+139.171+260.536+139.128+260.469+139.08C259.81+138.68+259.055+137.911+259.703+137.211C259.799+137.105+259.917+137.019+260.052+136.944C260.097+136.88+260.142+136.827+260.198+136.774C260.277+136.677+260.362+136.587+260.457+136.512C261.167+135.957+262.023+136.629+262.377+137.227C262.484+137.414+262.541+137.612+262.552+137.804C262.946+137.9+263.346+137.986+263.802+138.002C264.951+138.044+266.111+137.97+267.248+137.863C268.442+137.751+269.568+137.59+270.598+136.95C271.342+136.496+271.922+135.898+272.608+135.412C269.241+135.492+265.75+133.789+263.002+132.081C262.935+132.113+262.862+132.145+262.783+132.166C262.529+132.294+262.242+132.284+261.983+132.171C261.448+132.006+260.987+131.525+260.97+131.002C260.958+130.767+261.06+130.575+261.206+130.415C261.341+130.084+261.64+129.849+262.04+129.838L262.113+129.844C262.332+129.721+262.58+129.651+262.828+129.657C263.509+129.673+263.875+130.335+263.819+130.922C263.796+131.178+263.695+131.424+263.549+131.627C265.024+132.529+266.561+133.319+268.211+133.907C269.923+134.51+271.629+134.633+273.402+134.841C272.293+133.864+271.144+132.919+270.035+131.995C267.929+130.233+265.733+128.562+263.526+126.913C263.143+127.025+262.715+127.009+262.349+126.859C261.966+126.854+261.612+126.704+261.37+126.325C260.88+125.562+261.606+124.628+262.332+124.318C262.473+124.254+262.62+124.216+262.772+124.179C263.042+124.062+263.312+124.04+263.543+124.163C263.971+124.238+264.337+124.467+264.511+124.889C264.59+124.868+264.692+124.911+264.686+125.001C264.68+125.097+264.652+125.199+264.613+125.295C264.63+125.476+264.613+125.658+264.562+125.829L264.557+125.872C264.511+126.149+264.376+126.373+264.191+126.544C266.623+128.375+269.016+130.244+271.325+132.209C271.251+131.985+271.212+131.739+271.167+131.509C271.004+130.623+270.874+129.769+270.576+128.915C269.928+127.073+268.785+125.38+267.507+123.864C267.152+123.859+266.814+123.688+266.567+123.426C266.206+123.309+265.897+123.026+265.671+122.738C265.136+122.06+265.649+121.387+266.347+121.099C266.516+121.029+266.702+120.981+266.893+120.954C267.259+120.8+267.603+120.837+267.884+120.997C268.115+121.05+268.335+121.141+268.526+121.28C269.314+121.846+268.909+123.079+268.233+123.602C269.343+124.953+270.26+126.421+270.964+128.007C271.319+128.787+271.55+129.593+271.668+130.431C271.775+131.13+271.983+132.001+271.916+132.716C273.515+134.093+275.069+135.524+276.561+137.014C277.67+138.124+278.493+139.523+279.393+140.783C279.855+141.424+280.328+142.059+280.824+142.673C280.064+140.479+279.208+138.322+278.267+136.213C278.143+135.999+278.036+135.775+277.969+135.535L277.941+135.476L277.946+135.45C277.721+134.558+277.839+133.549+277.975+132.689C278.177+131.365+278.633+130.041+279.163+128.787C278.92+128.509+278.735+128.167+278.594+127.799C278.239+127.34+278.245+126.608+278.234+126.085C278.217+125.402+278.2+124.515+278.459+123.853C278.504+123.651+278.549+123.453+278.6+123.271C278.656+123.069+278.926+122.978+279.089+123.127C279.134+123.17+279.168+123.207+279.213+123.25C279.709+123.197+280.227+123.56+280.075+124.195C280.041+124.339+280.013+124.478+279.985+124.622C280.187+125.407+280.109+126.272+279.979+127.131C281.212+124.959+282.935+123.058+284.084+120.848C284.101+120.682+284.163+120.533+284.264+120.399C283.83+120.351+283.419+120.031+283.414+119.54C283.138+119.144+282.924+118.691+282.733+118.264C282.547+117.922+282.395+117.564+282.288+117.196C281.471+115.108+281.803+113.138+281.984+110.923C282.017+110.469+282.383+110.1+282.817+110.047C282.862+109.876+282.907+109.705+282.946+109.545C283.003+109.337+283.329+109.262+283.448+109.465" opacity="1" fill="#ffffff"/>
</g>
</g>
</g>
</g>
</g>
</g>
<g opacity="1" vectornator:mask="#Mask_4">
<clipPath id="ClipPath_4">
<use xlink:href="#Mask_4" fill="none" overflow="visible"/>
</clipPath>
<g clip-path="url(#ClipPath_4)">
<g opacity="1" vectornator:mask="#Mask_5">
<clipPath id="ClipPath_5">
<use xlink:href="#Mask_5" fill="none" overflow="visible"/>
</clipPath>
<g clip-path="url(#ClipPath_5)">
<g opacity="1" vectornator:mask="#Mask_6">
<clipPath id="ClipPath_6">
<use xlink:href="#Mask_6" fill="none" overflow="visible"/>
</clipPath>
<g clip-path="url(#ClipPath_6)">
<path d="M82.4813+124.003C82.836+124.008+83.1964+124.056+83.5624+124.131C83.202+124.088+82.8417+124.046+82.4813+124.003ZM107.639+122.305C107.696+122.225+107.775+122.14+107.859+122.076L107.972+122.027L107.977+122.022L107.977+122.027C108.073+122.086+108.169+122.476+108.135+122.663L108.112+122.727C108.084+122.732+108.05+122.743+108.022+122.743C107.988+122.743+107.955+122.743+107.927+122.743C107.797+122.625+107.707+122.471+107.639+122.305ZM112.043+126.021C111.941+125.861+111.919+125.669+111.913+125.482C112.026+125.439+112.138+125.412+112.262+125.444C112.555+125.524+112.493+125.813+112.335+125.968C112.189+126.112+112.105+126.122+112.043+126.021ZM105.263+145.15C105.291+145.145+105.348+145.134+105.398+145.129C105.533+145.113+105.669+145.134+105.798+145.15C105.883+145.156+105.928+145.193+105.961+145.236L105.945+145.252C105.883+145.337+105.843+145.417+105.809+145.513C105.798+145.54+105.776+145.61+105.759+145.658L105.747+145.658C105.573+145.593+105.359+145.369+105.263+145.15ZM108.428+146.432C108.416+146.293+108.456+146.17+108.54+146.085C108.54+146.207+108.597+146.33+108.749+146.4C108.873+146.458+109.019+146.544+109.058+146.597L109.047+146.608C108.974+146.683+108.873+146.736+108.771+146.773C108.591+146.725+108.473+146.592+108.428+146.432ZM110.342+148.658C110.348+148.567+110.37+148.482+110.398+148.396C110.443+148.3+110.517+148.226+110.646+148.194C110.95+148.124+111.26+148.258+111.48+148.45C111.26+148.754+110.883+148.856+110.522+148.743C110.455+148.722+110.398+148.69+110.342+148.658ZM96.9016+173.794C96.8565+173.81+96.8059+173.826+96.7608+173.852C96.7158+173.874+96.6707+173.9+96.6257+173.927C96.6876+173.831+96.7496+173.74+96.8115+173.644C96.8453+173.698+96.8734+173.746+96.9016+173.794ZM106.907+208.881C106.643+208.577+106.395+208.262+106.164+207.947C106.282+207.803+106.356+207.626+106.344+207.424C106.327+207.141+106.271+206.858+106.198+206.575C106.423+207.028+106.71+207.461+107.065+207.856C106.969+208.086+107.189+208.262+107.403+208.246C107.459+208.657+107.487+209.079+107.47+209.484C107.279+209.287+107.088+209.084+106.907+208.881ZM106.457+195.358C106.547+195.261+106.671+195.192+106.772+195.123C106.84+195.08+106.902+195.069+106.958+195.08L106.952+195.107C106.969+195.213+106.992+195.294+107.037+195.395C107.048+195.416+107.082+195.48+107.099+195.528L107.088+195.534C106.913+195.598+106.598+195.566+106.378+195.459C106.389+195.438+106.423+195.395+106.457+195.358ZM109.475+194.087C109.554+194.183+109.689+194.236+109.852+194.194C109.982+194.162+110.151+194.13+110.218+194.14L110.218+194.151C110.218+194.263+110.179+194.365+110.128+194.455C109.959+194.535+109.779+194.514+109.633+194.418C109.531+194.327+109.469+194.21+109.475+194.087ZM112.482+194.637C112.454+194.541+112.448+194.445+112.521+194.333C112.707+194.092+113.034+193.996+113.332+194.001C113.377+194.37+113.169+194.674+112.82+194.824C112.752+194.85+112.69+194.866+112.628+194.872C112.566+194.802+112.521+194.722+112.482+194.637ZM89.4183+214.898C89.1931+214.893+89.0129+214.668+88.9116+214.498C88.8834+214.22+88.9679+213.836+89.2551+213.884C89.3114+213.894+89.362+213.916+89.4071+213.937C89.6717+214.151+89.8294+214.615+89.7055+214.919C89.6042+214.903+89.4972+214.898+89.4183+214.898ZM69.7727+188.086C69.7052+187.958+69.6601+187.814+69.677+187.686C69.8854+187.771+70.0824+188.049+70.1444+188.219L70.1669+188.3C70.0261+188.241+69.8966+188.171+69.7727+188.086ZM73.0386+187.146C73.0104+187.088+72.9879+187.029+72.9823+186.997C72.9541+186.911+72.9428+186.81+72.9372+186.714C73.0611+186.559+73.3539+186.404+73.4496+186.543C73.5847+186.73+73.6523+187.12+73.5172+187.339C73.4834+187.344+73.4383+187.339+73.3708+187.323C73.2638+187.29+73.1399+187.226+73.0386+187.146ZM75.9496+169.095L75.9722+169.106L75.9496+169.106L75.9496+169.095ZM79.0128+165.769C78.9114+165.033+78.7369+164.29+78.5173+163.559C78.8157+164.269+78.9733+165.011+79.0128+165.769ZM86.2032+174.803L86.237+174.792L86.237+174.813L86.2032+174.803ZM85.9498+152.571C85.9949+152.502+86.0399+152.433+86.0681+152.353C86.0455+152.459+86.023+152.561+85.9892+152.662C85.978+152.63+85.9667+152.603+85.9498+152.571ZM91.7833+109.497C91.558+109.871+91.3384+110.271+91.1301+110.693C89.6492+112.022+89.2945+114.414+89.4352+116.614C89.3958+117.303+89.4296+117.981+89.5479+118.637C89.424+118.627+89.2945+118.589+89.1593+118.514C88.7483+118.285+88.3654+118.023+87.9994+117.735C87.3744+116.993+86.6368+116.315+85.8259+115.749C85.2516+115.188+84.6716+114.644+84.0354+114.174L84.0297+114.169C83.9622+114.121+83.9002+114.067+83.8327+114.019C83.3203+113.667+82.8473+113.907+82.6221+114.318C82.577+114.307+82.5263+114.297+82.4757+114.286C82.2786+114.249+82.0984+114.345+82.0815+114.548C81.9464+115.973+83.4441+116.913+84.5478+117.591C84.8012+117.746+85.0602+117.917+85.3248+118.082C85.9555+118.664+86.5917+119.235+87.2111+119.828C85.5782+119.988+83.9171+120.538+82.4419+121.301C81.0511+121.947+79.7785+122.802+78.6918+123.832C78.506+124.014+78.5961+124.366+78.8945+124.366C79.1141+124.361+79.3844+124.371+79.6885+124.398C79.9475+124.617+80.3191+124.708+80.6682+124.489L80.6795+124.483C82.2617+124.633+84.3732+124.884+86.2933+124.862C87.0647+125.049+87.8305+125.167+88.5681+125.049C89.2776+124.937+89.8069+124.585+90.1785+124.104C90.7528+123.752+91.147+123.266+91.2483+122.593C92.2619+124.227+93.5513+125.759+94.5254+127.372C95.3531+128.76+95.9049+130.287+96.3216+131.824C96.4737+132.39+96.5581+132.924+96.5919+133.447C94.6042+137.489+92.9488+141.712+91.665+146.085C91.6087+145.973+91.5524+145.866+91.4961+145.764C91.1526+145.118+90.522+143.954+89.6154+143.954C89.4578+143.96+89.317+144.067+89.3114+144.216C89.2494+145.647+90.2742+146.918+91.1076+148.06C90.0096+152.171+89.2382+156.405+88.8159+160.745C88.2134+158.444+87.4532+156.165+86.5523+153.954C86.4622+153.735+86.3609+153.506+86.2651+153.276C86.8226+152.518+86.9239+151.493+86.8057+150.473C87.0084+149.261+86.7212+147.948+86.0174+146.966C85.8372+146.709+85.5951+146.592+85.3473+146.571C85.3304+146.544+85.3079+146.522+85.291+146.496C84.6491+144.755+83.4667+143.308+81.5522+142.732C81.3439+142.668+81.0961+142.71+80.8934+142.817C80.7752+142.759+80.6569+142.694+80.5387+142.636C80.381+142.561+80.1558+142.63+80.1558+142.828C80.1333+144.606+80.0657+146.549+80.4373+148.354C80.8428+151.157+82.1322+153.746+85.2629+153.698L85.3361+153.687C85.5219+153.703+85.7077+153.719+85.8991+153.719C85.9667+153.874+86.0399+154.024+86.1075+154.178C87.1098+156.538+87.7404+159.021+88.7032+161.386C88.7145+161.418+88.7314+161.434+88.7596+161.445C88.6582+162.55+88.5794+163.66+88.5287+164.782C88.3035+169.619+88.5287+174.381+89.1593+179.026C88.5005+177.846+87.6109+176.751+86.6706+175.742C86.9127+175.107+86.907+174.365+86.7438+173.617C86.6987+172.539+86.0793+171.082+85.9329+170.564C85.7527+169.907+84.6885+169.715+84.3563+170.366C83.9002+171.247+83.8777+172.416+84.6773+173.094C84.8349+173.521+85.0489+173.943+85.2741+174.36L85.3023+174.429C83.4104+172.811+81.1693+171.578+79.3281+169.912C79.1873+169.704+79.024+169.491+78.8382+169.266C78.7819+169.202+78.7143+169.154+78.6355+169.111C78.7256+169.042+78.8044+168.946+78.8438+168.818C80.6288+166.207+79.131+163.073+77.4812+160.526C77.4193+160.356+77.3573+160.185+77.301+160.019C77.2053+159.758+77.0139+159.576+76.7886+159.485C76.6253+159.256+76.4677+159.026+76.3156+158.807C76.1918+158.626+75.8539+158.663+75.8145+158.893C75.7582+159.192+75.7132+159.501+75.6737+159.822C75.6343+159.886+75.6005+159.95+75.578+160.03C74.8179+162.502+75.2177+166.218+76.8618+168.321C76.9688+168.455+77.1039+168.562+77.256+168.636C77.3742+168.812+77.5037+168.983+77.6389+169.149C77.5882+169.181+77.5488+169.213+77.5094+169.256C77.4756+169.293+77.4362+169.33+77.4024+169.368C77.3348+169.357+77.2672+169.346+77.2053+169.336C76.5521+168.716+75.7582+168.15+74.8854+167.675C73.2525+166.602+70.8201+165.337+69.0126+166.052C68.8493+166.122+68.7311+166.26+68.6579+166.426C68.5283+166.485+68.4551+166.607+68.4946+166.762C68.7142+167.552+69.3786+168.022+70.1444+168.337C70.561+168.535+71.0115+168.684+71.4901+168.807C72.1208+168.967+72.7683+169.069+73.4046+169.197C73.6861+169.266+73.9733+169.336+74.2548+169.4L74.2886+169.41L74.328+169.442C74.6152+169.661+75.0093+169.795+75.3641+169.624C75.792+169.699+76.2143+169.752+76.631+169.773C73.1174+170.841+70.1894+173.436+68.6353+176.591C68.5227+176.816+68.7367+177.125+69.0126+177.024C70.6117+176.458+75.1163+175.801+77.8528+174.392C79.3619+173.746+80.3585+172.838+80.0432+171.418C81.5747+172.614+83.3203+173.628+84.7899+174.824C86.0737+175.865+87.1323+177.12+88.0782+178.439C88.9735+179.677+89.3733+180.878+89.6717+182.283C92.3238+197.135+99.1764+210.723+109.058+221.844C108.76+221.748+108.456+221.657+108.157+221.55C108.095+221.529+108.039+221.534+107.983+221.556C106.671+220.685+105.567+219.431+104.109+218.844C89.3677+212.896+81.8788+193.985+79.086+188.214C79.39+188.187+79.6772+188.054+79.8799+187.76C80.2572+187.221+79.9925+186.607+79.5533+186.201C79.5139+186.079+79.4576+185.961+79.3562+185.849C79.1085+185.566+78.6637+185.443+78.3033+185.593C78.2526+185.609+78.2076+185.635+78.1625+185.667C77.9148+185.662+77.667+185.699+77.4418+185.78C77.2391+185.854+77.1659+186.089+77.1997+186.271C77.2391+186.49+77.3179+186.709+77.4305+186.895C77.4531+187.557+78.1231+188.123+78.7988+188.209C80.5218+192.448+82.4982+196.618+84.3845+200.787C84.4464+200.921+84.5084+201.044+84.5703+201.172C83.6919+200.462+82.7178+199.864+81.8788+199.1C80.595+197.931+79.4801+196.612+78.3821+195.294C78.2526+195.144+78.1344+195+78.0161+194.85C78.4103+194.183+78.6074+193.441+78.506+192.667C78.4666+192.352+78.3765+191.925+78.2076+191.546C78.3934+191.439+78.5173+191.241+78.5679+191.001C78.658+190.515+78.5116+189.997+78.2076+189.597C77.9429+189.239+77.5263+189.084+77.0983+189.186C76.8111+189.138+76.5184+189.191+76.2875+189.415C76.0116+189.677+75.9665+189.976+76.051+190.254C76.051+190.28+76.0397+190.312+76.0397+190.339C76.0341+190.563+76.1242+190.75+76.265+190.905C76.5015+191.359+76.9688+191.695+77.515+191.647C77.6839+191.946+77.7965+192.277+77.8697+192.608C78.0049+193.217+77.9767+193.927+77.7515+194.535C76.1411+192.56+74.6827+190.558+73.6185+188.267C75.1332+188.113+75.2852+185.876+73.8212+185.267C72.9147+184.893+72.3854+185.502+72.2221+186.249C71.9406+186.628+71.8617+187.125+72.2221+187.589C72.3178+187.707+72.4361+187.808+72.5599+187.899C72.6895+188.033+72.8527+188.139+73.0329+188.203C73.0611+188.23+73.0949+188.246+73.1455+188.257L73.2019+188.262C73.4778+189.592+74.2379+190.873+75.1276+192.079C73.4834+191.172+72.5431+189.666+71.2198+188.369C71.3493+187.509+70.6455+186.436+69.6601+186.725C69.6094+186.741+69.57+186.762+69.525+186.778C69.1646+186.757+68.8155+186.89+68.5621+187.264C68.1117+187.926+68.8437+188.673+69.632+189.031C69.8065+189.154+69.9923+189.218+70.1894+189.218C70.5385+189.293+70.8369+189.25+70.9777+189.058L71.034+189.02C71.0622+188.999+71.0791+188.967+71.096+188.935C72.0644+190.483+73.6185+192.218+75.4879+192.555C76.2424+193.521+77.0533+194.439+77.7402+195.278C79.5927+197.547+81.8675+200.349+84.7448+201.545C86.4904+205.229+88.6413+208.534+91.5355+211.545C94.3058+214.434+97.4759+216.783+100.933+218.817C99.2102+218.721+97.5491+218.55+95.8486+217.995C93.8835+217.343+92.2788+216.201+90.6177+215.08C90.6684+214.887+90.6853+214.69+90.6627+214.487C90.5839+213.921+90.2461+213.334+89.7055+213.051C89.103+212.73+88.2922+212.944+87.9825+213.547C87.7179+214.071+87.8699+214.668+88.219+215.117C88.2359+215.165+88.2584+215.213+88.2753+215.256C88.5681+215.795+89.1819+216.046+89.7956+215.902C90.0997+215.827+90.3249+215.651+90.4657+215.427C92.2619+217.151+94.7619+218.358+97.3802+218.929C96.2822+219.602+95.2124+219.826+93.9004+219.89C93.1909+219.927+92.4421+219.842+91.7044+219.821C91.7101+219.767+91.7101+219.719+91.7044+219.671C91.5974+218.838+90.6402+218.422+89.897+218.785C89.8519+218.806+89.8125+218.838+89.7731+218.86C89.7393+218.87+89.7111+218.876+89.6774+218.886C88.9397+219.169+88.7201+219.954+89.1706+220.552C89.2156+220.611+89.2663+220.664+89.3226+220.712C89.4296+220.904+89.5985+221.064+89.79+221.177C90.0659+221.508+90.6008+221.476+90.9781+221.219C91.0006+221.203+91.0175+221.187+91.04+221.171C91.0794+221.145+91.1076+221.123+91.1357+221.097L91.1808+221.054C91.2202+221.016+91.2596+220.979+91.2878+220.942C91.4229+220.798+91.5186+220.627+91.5918+220.445C92.4702+220.499+93.4105+220.413+94.2157+220.333C95.2856+220.232+96.9748+220.071+97.5829+219.078C97.5998+219.046+97.5942+219.009+97.5773+218.972C98.9737+219.26+100.387+219.367+101.738+219.281C102.127+219.5+102.504+219.714+102.898+219.927C105.1+221.113+107.375+222.202+109.486+223.526C110.415+224.108+111.322+224.727+112.273+225.266C113.473+226.473+114.7+227.647+115.973+228.785C118.681+230.787+121.254+232.976+124.07+234.855C125.095+235.538+126.17+236.163+127.268+236.745C127.972+236.841+128.676+236.942+129.38+237.049C124.177+233.862+119.374+230.157+115.033+226.024C114.205+224.407+113.439+222.773+112.78+221.102C112.865+221.059+112.949+221.006+113.045+220.942C113.794+220.402+114.216+219.287+113.935+218.438C113.844+218.165+113.478+218.171+113.298+218.347C112.87+218.779+112.487+219.217+112.257+219.724C111.817+218.491+111.429+217.242+111.13+215.955C110.725+214.225+110.494+212.496+110.359+210.76C111.181+210.67+112.11+210.547+112.82+210.141C113.394+209.81+113.867+209.063+113.31+208.513C112.865+208.08+111.953+208.603+111.553+208.822C111.215+209.009+110.905+209.233+110.624+209.479C110.489+209.602+110.393+209.735+110.291+209.869C110.173+207.824+110.173+205.774+110.184+203.708C110.303+203.387+110.534+203.115+110.821+202.891C110.962+203.078+111.175+203.211+111.451+203.232C111.8+203.425+112.251+203.462+112.651+203.489C112.713+203.494+112.769+203.489+112.825+203.489C112.859+203.489+112.893+203.489+112.927+203.489C113.439+203.494+113.951+203.419+114.453+203.318C114.858+203.232+115.14+202.843+115.134+202.464C115.134+202.031+114.835+201.77+114.441+201.62C113.473+201.241+111.361+200.883+110.753+201.989C110.641+202.197+110.624+202.416+110.68+202.619C110.421+202.848+110.207+203.12+110.077+203.457C110.021+203.457+109.959+203.489+109.948+203.547C109.942+203.622+109.931+203.697+109.92+203.772C109.88+203.686+109.847+203.606+109.802+203.521C109.683+203.003+109.441+202.49+109.126+202.01C109.098+201.93+109.064+201.85+109.036+201.775L109.07+201.738C110.094+199.789+111.35+197.723+111.975+195.566L111.981+195.566C112.105+195.646+112.24+195.715+112.38+195.769C113.135+196.228+114.171+196.105+114.667+195.213C114.869+194.85+114.875+194.418+114.734+194.034C114.65+193.372+114.216+192.747+113.433+192.603C112.544+192.443+111.53+193.163+111.271+193.943C111.119+194.407+111.237+194.893+111.547+195.245C110.686+197.354+109.818+199.458+108.951+201.572C108.754+201.081+108.568+200.59+108.4+200.099C108.619+198.534+109.03+196.986+109.227+195.422C109.588+195.587+109.982+195.544+110.303+195.368C110.46+195.326+110.612+195.251+110.748+195.117C110.956+194.93+111.085+194.637+111.108+194.343C111.446+193.024+109.345+192.288+108.636+193.505C108.287+194.103+108.411+194.834+108.951+195.256C108.557+196.698+108.394+198.209+108.259+199.698C107.932+198.678+107.662+197.637+107.476+196.548C107.893+196.436+108.248+196.137+108.411+195.742C108.805+194.792+107.662+194.13+106.806+194.13C106.085+194.13+105.635+194.69+105.584+195.261C105.55+195.347+105.533+195.432+105.533+195.518C105.539+195.721+105.635+195.881+105.781+196.004C105.894+196.169+106.063+196.303+106.282+196.393C106.322+196.409+106.361+196.415+106.401+196.425C106.558+196.505+106.733+196.564+106.924+196.591C107.003+196.602+107.082+196.602+107.155+196.602C107.189+198.027+107.628+199.49+108.231+200.889C107.448+200.061+106.491+199.335+105.624+198.758C105.933+198.353+106.012+197.765+105.635+197.402C105.179+196.959+104.233+197.018+103.687+197.221C103.58+197.258+103.49+197.317+103.416+197.381C103.343+197.37+103.264+197.402+103.253+197.482C103.253+197.52+103.259+197.547+103.253+197.579C103.112+197.84+103.163+198.155+103.411+198.337C103.664+198.871+104.193+199.282+104.852+199.212C105.083+199.191+105.291+199.084+105.46+198.935C106.637+199.944+107.853+200.851+108.76+202.026C109.098+202.709+109.458+203.355+109.818+203.964L109.824+203.98L109.83+203.98L109.88+204.071C109.509+206.697+109.52+209.394+109.852+212.074C109.222+211.23+108.422+210.461+107.668+209.687C107.848+209.095+107.853+208.481+107.775+207.861L107.775+207.835C108.383+206.308+107.752+204.546+106.04+203.975C105.804+203.9+105.584+204.055+105.601+204.29C105.624+204.711+105.697+205.122+105.804+205.518C105.488+204.888+105.077+204.29+104.638+203.766C104.199+203.238+103.625+202.848+102.955+202.635C102.684+202.544+102.273+202.528+101.992+202.613C101.868+202.651+101.744+202.693+101.62+202.747C101.615+202.752+101.035+203.195+101.339+202.971C101.035+203.195+101.046+203.638+101.198+203.932C101.288+204.103+101.361+204.231+101.44+204.338C101.457+204.412+101.468+204.492+101.491+204.567C101.468+204.994+101.772+205.47+102.009+205.774C102.758+206.756+103.901+207.552+104.993+208.171C105.252+208.32+105.567+208.31+105.832+208.192C106.08+208.507+106.333+208.817+106.581+209.111C106.829+209.404+107.088+209.709+107.352+210.018C106.333+209.618+104.492+209.575+103.917+210.595C103.856+210.707+103.906+210.878+104.013+210.953C105.156+211.721+106.744+211.305+107.87+210.723C107.898+210.707+107.921+210.691+107.938+210.675C108.552+211.337+109.199+211.972+109.909+212.485C110.077+213.723+110.32+214.957+110.618+216.179C110.505+216.062+110.382+215.955+110.28+215.854C109.914+215.507+109.267+214.839+108.675+214.898C107.972+214.973+108.219+215.811+108.484+216.174C108.934+216.783+109.785+217.087+110.567+217.29C110.646+217.349+110.719+217.413+110.804+217.471C110.855+217.509+110.916+217.525+110.978+217.525C111.232+218.4+111.519+219.265+111.829+220.12C111.237+219.607+110.449+219.142+109.706+219.271C109.475+219.308+109.402+219.522+109.509+219.703C109.942+220.445+110.804+220.733+111.632+220.979C111.671+221+111.71+221.027+111.75+221.048C111.936+221.145+112.099+221.203+112.251+221.214C112.78+222.522+113.377+223.787+114.03+225.021C114.002+224.999+113.968+224.978+113.935+224.962C104.649+215.8+97.5998+204.61+93.602+192.213C94.3734+190.083+95.0209+187.888+95.5221+185.694C95.5727+185.459+95.6234+185.214+95.6741+184.973C97.4309+184.306+98.3431+181.925+98.6584+180.355C98.8442+179.426+98.8217+178.417+98.6584+177.413C98.5739+176.33+98.3712+175.278+98.1122+174.381C98.0165+174.05+97.7349+173.831+97.4196+173.762C97.3014+173.537+97.1775+173.313+97.0424+173.1C96.9579+172.955+96.7327+172.897+96.6144+173.057C95.2349+175.006+93.6301+177.141+93.1008+179.474C92.7461+181.055+92.977+182.87+93.9961+184.162C94.075+184.354+94.227+184.514+94.4128+184.621C94.6211+184.819+94.852+185+95.1166+185.155C95.0772+185.315+95.0547+185.481+95.0153+185.646C94.593+187.643+93.9286+189.581+93.388+191.551C91.6369+185.945+90.5107+180.099+90.0771+174.087C90.6458+172.128+91.2765+170.201+92.0423+168.327C92.1324+168.348+92.2393+168.364+92.3576+168.369C93.2867+168.444+94.3847+167.878+94.7732+167.067C94.897+166.805+94.6211+166.581+94.3621+166.597C93.7427+166.65+93.1459+166.736+92.6222+166.971C93.1572+165.775+93.7484+164.6+94.4297+163.447C95.3362+161.899+96.3779+160.462+97.4984+159.085C98.1685+159.533+98.9512+160.03+99.7676+160.174C100.432+160.286+101.305+160.025+101.271+159.266C101.249+158.663+100.196+158.476+99.7451+158.386C99.3622+158.316+98.9737+158.284+98.5908+158.295C98.405+158.3+98.2361+158.337+98.0728+158.375C99.4185+156.773+100.86+155.246+102.318+153.714C102.662+153.532+103.062+153.468+103.467+153.5L103.467+153.511C103.512+153.719+103.58+153.922+103.67+154.12C103.692+154.2+103.732+154.285+103.782+154.355C103.794+154.381+103.805+154.408+103.822+154.429C103.861+154.611+103.934+154.792+104.041+154.99C104.3+155.465+104.785+155.866+105.291+156.09C105.798+156.314+106.311+156.127+106.525+155.743C106.648+155.679+106.693+155.551+106.648+155.422L106.626+155.374C106.631+155.294+106.631+155.214+106.615+155.123C106.446+154.227+105.821+153.543+105.077+153.015C104.773+152.801+104.306+152.913+104.058+153.137C104.019+153.175+103.991+153.207+103.957+153.244C103.433+153.159+102.898+153.212+102.414+153.452C102.369+153.42+102.307+153.404+102.256+153.442C102.194+153.49+102.138+153.543+102.076+153.591C102.104+153.506+102.133+153.42+102.166+153.335C102.442+152.865+102.617+152.337+102.724+151.771C102.752+151.696+102.786+151.616+102.814+151.536L102.865+151.541C104.999+150.73+107.386+149.977+109.368+148.765L109.374+148.765C109.407+148.904+109.464+149.037+109.531+149.171C109.773+149.987+110.635+150.548+111.632+150.201C112.026+150.057+112.341+149.736+112.504+149.363C112.915+148.813+113.022+148.076+112.538+147.473C111.992+146.789+110.719+146.693+109.982+147.115C109.548+147.355+109.295+147.798+109.278+148.252C107.155+149.288+105.027+150.308+102.898+151.338C103.09+150.847+103.298+150.366+103.518+149.891C104.785+148.861+106.175+147.964+107.42+146.918C107.577+147.275+107.898+147.489+108.264+147.558C108.411+147.628+108.574+147.665+108.766+147.66C109.058+147.644+109.362+147.505+109.582+147.302C110.759+146.533+109.706+144.654+108.326+145.118C107.645+145.348+107.217+145.973+107.33+146.624C106.023+147.446+104.841+148.477+103.698+149.502C104.165+148.535+104.706+147.59+105.325+146.656C105.714+146.832+106.187+146.832+106.586+146.651C107.544+146.186+107.161+144.969+106.519+144.43C105.978+143.976+105.252+144.104+104.813+144.504C104.734+144.547+104.655+144.6+104.599+144.665C104.452+144.814+104.419+144.996+104.436+145.182C104.407+145.375+104.441+145.583+104.542+145.791C104.559+145.823+104.588+145.855+104.61+145.882C104.666+146.042+104.756+146.197+104.88+146.341C104.931+146.4+104.987+146.448+105.049+146.496C104.075+147.58+103.366+148.952+102.836+150.372C102.831+149.256+102.634+148.119+102.386+147.136C102.904+147.024+103.377+146.635+103.354+146.127C103.321+145.513+102.577+144.963+102.026+144.766C101.919+144.729+101.812+144.713+101.71+144.713C101.66+144.665+101.581+144.632+101.513+144.691C101.491+144.713+101.474+144.739+101.451+144.761C101.158+144.867+100.978+145.134+101.035+145.423C100.849+145.983+100.956+146.629+101.491+146.992C101.682+147.12+101.913+147.168+102.144+147.163C102.313+148.663+102.583+150.105+102.431+151.552C102.211+152.278+102.026+152.993+101.862+153.671L101.857+153.682L101.857+153.687C101.851+153.719+101.84+153.757+101.834+153.789C99.7113+155.513+97.8307+157.531+96.1977+159.742C96.3216+158.711+96.2597+157.638+96.2372+156.581C96.7946+156.25+97.2225+155.802+97.6054+155.289L97.6223+155.268C99.1426+154.515+99.914+152.796+99.0356+151.29C98.9174+151.087+98.6415+151.066+98.4838+151.247C97.6111+152.288+97.1099+153.511+97.0761+154.841C96.8453+154.947+96.8847+155.214+97.0536+155.342C96.8059+155.684+96.5356+156.015+96.2372+156.309C96.2315+156.036+96.2315+155.764+96.2428+155.503C96.2709+154.702+96.3892+153.928+96.53+153.159C97.093+152.652+97.3802+152.027+97.4872+151.349C97.5097+151.279+97.5266+151.21+97.5435+151.157C97.8194+150.068+97.7293+148.797+97.1268+147.82C96.9016+147.451+96.2935+147.222+95.8993+147.499C95.004+148.135+94.7506+149.096+94.6774+150.116C94.6268+150.874+94.7338+151.925+95.3081+152.539C95.3194+152.678+95.3757+152.806+95.4939+152.908C95.6122+153.185+95.7417+153.458+95.8824+153.714C95.8993+153.751+95.9331+153.767+95.9669+153.773C95.9049+154.344+95.8655+154.915+95.8374+155.46C95.8149+155.844+95.7867+156.234+95.7698+156.629C95.2912+155.684+93.9511+154.493+92.808+154.894C92.6785+154.937+92.5997+155.097+92.6279+155.22C92.9376+156.517+94.4184+157.206+95.6685+157.489C95.6966+157.494+95.7248+157.494+95.7529+157.489C95.7417+158.37+95.7811+159.256+95.9444+160.089C95.2067+161.114+94.5198+162.187+93.8891+163.292C93.8779+163.132+93.8666+162.977+93.861+162.828C93.8328+162.342+93.8159+161.434+93.3373+161.108C92.7574+160.719+92.3463+161.503+92.2957+161.941C92.2056+162.678+92.6222+163.442+93.0671+164.082C93.084+164.178+93.0952+164.274+93.1177+164.37C93.129+164.429+93.1684+164.483+93.2078+164.525C92.7799+165.337+92.3857+166.159+92.0254+166.997C91.9409+166.234+91.6763+165.396+91.0344+165.022C90.8373+164.904+90.629+165.011+90.5839+165.219C90.3868+166.047+90.826+166.805+91.2709+167.515C91.2821+167.552+91.299+167.595+91.3103+167.633C91.3778+167.83+91.4623+167.974+91.5693+168.081C90.933+169.667+90.4094+171.279+89.9871+172.902C89.8407+170.243+89.8181+167.552+89.942+164.84C90.2742+157.638+91.5862+150.698+93.754+144.12C94.4297+143.677+95.111+142.614+95.3926+142.257C96.5469+140.783+97.521+139.171+98.771+137.772C99.5199+136.934+100.342+136.138+101.198+135.369C101.249+135.375+101.305+135.38+101.355+135.391C102.521+136.32+103.444+137.521+104.824+138.178C105.871+138.674+107.138+138.765+108.287+138.872C108.957+138.936+111.378+139.251+112.876+138.936C112.977+139.053+113.107+139.155+113.248+139.235C113.557+139.486+113.98+139.523+114.368+139.347C114.453+139.315+114.531+139.272+114.599+139.229C115.263+138.829+116.018+138.066+115.37+137.361C115.28+137.254+115.162+137.169+115.027+137.094C114.982+137.03+114.937+136.971+114.881+136.923C114.807+136.827+114.723+136.736+114.621+136.656C113.918+136.101+113.056+136.768+112.701+137.366C112.589+137.553+112.538+137.745+112.521+137.943C112.127+138.034+111.727+138.119+111.271+138.135C110.123+138.167+108.963+138.087+107.825+137.975C106.631+137.857+105.505+137.692+104.481+137.046C103.743+136.587+103.169+135.989+102.482+135.498C105.843+135.599+109.351+133.912+112.105+132.214C112.172+132.246+112.245+132.278+112.319+132.3C112.572+132.433+112.859+132.422+113.124+132.31C113.659+132.145+114.12+131.67+114.143+131.146C114.154+130.911+114.058+130.719+113.906+130.554C113.777+130.228+113.478+129.988+113.079+129.977L113.005+129.982C112.786+129.86+112.538+129.785+112.29+129.79C111.609+129.806+111.243+130.468+111.294+131.05C111.316+131.312+111.412+131.552+111.558+131.755C110.077+132.652+108.535+133.437+106.885+134.013C105.173+134.611+103.461+134.723+101.688+134.926C102.803+133.955+103.957+133.015+105.072+132.097C107.189+130.346+109.391+128.68+111.609+127.046C111.992+127.153+112.42+127.142+112.786+126.998C113.169+126.993+113.523+126.843+113.766+126.464C114.261+125.706+113.546+124.766+112.82+124.451C112.679+124.393+112.532+124.35+112.38+124.318C112.11+124.195+111.84+124.174+111.603+124.297C111.175+124.371+110.815+124.596+110.635+125.012C110.556+124.996+110.455+125.039+110.46+125.129C110.466+125.226+110.494+125.322+110.528+125.423C110.517+125.605+110.528+125.786+110.579+125.952L110.584+125.994C110.629+126.272+110.764+126.502+110.945+126.672C108.501+128.488+106.097+130.351+103.782+132.305C103.856+132.075+103.895+131.835+103.94+131.6C104.115+130.719+104.244+129.865+104.548+129.011C105.207+127.174+106.361+125.487+107.645+123.971C108+123.976+108.343+123.8+108.591+123.538C108.946+123.432+109.261+123.149+109.486+122.86C110.021+122.188+109.514+121.51+108.822+121.216C108.653+121.147+108.467+121.093+108.276+121.066C107.91+120.912+107.566+120.949+107.285+121.104C107.048+121.163+106.829+121.248+106.637+121.387C105.849+121.947+106.243+123.181+106.924+123.709C105.804+125.06+104.875+126.518+104.16+128.098C103.805+128.877+103.574+129.684+103.444+130.522C103.338+131.221+103.124+132.091+103.185+132.801C101.581+134.179+100.015+135.599+98.5176+137.083C97.3971+138.188+96.5694+139.582+95.6628+140.837C95.2011+141.472+94.7281+142.107+94.227+142.721C94.9928+140.527+95.8599+138.375+96.8171+136.266C96.9466+136.058+97.0536+135.834+97.1212+135.594L97.1493+135.535L97.1437+135.508C97.3746+134.622+97.2563+133.608+97.1324+132.748C96.9297+131.424+96.4849+130.095+95.9613+128.84C96.209+128.562+96.3948+128.226+96.5356+127.852C96.896+127.398+96.8903+126.667+96.9072+126.144C96.9297+125.46+96.9523+124.574+96.6932+123.912C96.6538+123.704+96.6088+123.506+96.5581+123.325C96.5018+123.127+96.2315+123.031+96.0682+123.181C96.0232+123.223+95.9838+123.261+95.9444+123.303C95.4432+123.25+94.9252+123.608+95.0772+124.248C95.1054+124.387+95.1392+124.531+95.1617+124.67C94.9534+125.455+95.0322+126.32+95.1561+127.18C93.9342+125.001+92.2225+123.09+91.085+120.874C91.0682+120.714+91.0062+120.559+90.9105+120.431C91.3441+120.383+91.7551+120.063+91.7607+119.572C92.0366+119.182+92.2619+118.728+92.4477+118.296C92.6391+117.959+92.7912+117.602+92.9038+117.233C93.7315+115.151+93.4049+113.181+93.2416+110.96C93.2078+110.506+92.8475+110.138+92.4083+110.079C92.3689+109.908+92.3238+109.743+92.2844+109.582C92.2337+109.369+91.9015+109.294+91.7833+109.497" opacity="1" fill="#ffffff"/>
</g>
</g>
</g>
</g>
</g>
</g>
<path d="M185.257+210.285C190.798+210.285+196.879+209.079+203.512+206.751C208.326+205.032+212.229+204.167+215.224+204.167C215.95+204.167+216.767+204.257+217.679+204.428L217.679+196.505C217.679+190.045+217.859+186.089+218.315+184.365C218.766+182.731+219.582+181.524+220.945+180.836C222.308+180.061+224.853+179.714+228.575+179.714L228.575+179.197L194.7+179.197L194.7+179.714L196.519+179.714C199.604+179.714+201.784+179.976+202.876+180.403C204.058+180.921+204.965+181.781+205.511+183.073C206.052+184.45+206.328+187.12+206.328+191.081C206.328+194.525+205.691+199.607+204.509+201.844C203.332+204.081+201.057+205.977+197.791+207.525C194.52+209.079+190.888+209.853+186.89+209.853C178.99+209.853+172.453+207.098+167.188+201.588C161.828+196.073+159.193+184.45+159.193+171.188C159.193+157.932+161.918+146.394+167.459+141.226C172.909+135.973+179.356+133.65+186.71+133.65C193.884+133.65+199.97+135.631+204.965+140.105C209.959+144.584+213.045+152.934+214.137+160.601L214.408+160.601L214.408+135.716L214.137+135.716C212.048+142.257+201.057+133.047+185.623+133.047C173.45+133.047+163.737+137.008+156.653+145.102C149.57+153.111+146.028+162.406+146.028+173.083C146.028+183.847+149.75+192.715+157.199+199.778C164.643+206.751+173.996+210.285+185.257+210.285Z" opacity="1" fill="#cca197"/>
<path d="M72.4374+266.902C74.7347+266.902+76.4127+265.369+76.4127+262.497L76.4127+253.106L75.5624+253.106L75.5624+262.497C75.5624+264.931+74.2336+266.133+72.398+266.133C71.8518+266.133+70.8608+265.983+70.0331+265.754L70.0331+266.517C70.7989+266.747+71.7899+266.902+72.4374+266.902Z" opacity="1" fill="#ffffff"/>
<path d="M92.4732+266.998C96.8314+266.998+100.002+263.97+100.002+259.801C100.002+255.631+96.8314+252.625+92.4732+252.625C88.1151+252.625+84.9675+255.631+84.9675+259.801C84.9675+263.97+88.1151+266.998+92.4732+266.998ZM92.4732+266.229C88.6218+266.229+85.8346+263.511+85.8346+259.801C85.8346+256.09+88.6218+253.394+92.4732+253.394C96.3472+253.394+99.1344+256.09+99.1344+259.801C99.1344+263.533+96.3472+266.229+92.4732+266.229Z" opacity="1" fill="#ffffff"/>
<path d="M108.554+266.517L109.421+266.517L109.421+260.719L112.952+260.719L118.262+266.517L119.348+266.517L114.005+260.703L114.63+260.703C117.496+260.682+119.393+259.171+119.393+256.912C119.393+254.558+117.513+253.106+114.489+253.106L108.554+253.106L108.554+266.517ZM109.421+259.956L109.421+253.869L114.489+253.869C117.012+253.869+118.521+255.001+118.521+256.912C118.521+258.77+116.972+259.956+114.489+259.956L109.421+259.956Z" opacity="1" fill="#ffffff"/>
<path d="M127.966+266.517L132.262+266.517C136.845+266.517+139.892+264.029+139.892+259.801C139.892+255.594+136.806+253.106+132.262+253.106L127.966+253.106L127.966+266.517ZM128.833+265.754L128.833+253.869L132.262+253.869C136.26+253.869+139.047+256.069+139.047+259.801C139.047+263.57+136.299+265.754+132.262+265.754L128.833+265.754Z" opacity="1" fill="#ffffff"/>
<path d="M147.093+266.517L147.966+266.517L149.418+263.015L157.025+263.015L158.478+266.517L159.345+266.517L153.855+253.106L152.605+253.106L147.093+266.517ZM149.7+262.251L153.151+253.869L153.292+253.869L156.738+262.251L149.7+262.251Z" opacity="1" fill="#ffffff"/>
<path d="M167.192+266.517L168.042+266.517L168.042+254.179L168.183+254.179L176.432+266.517L177.705+266.517L177.705+253.106L176.86+253.106L176.86+265.465L176.719+265.465L168.465+253.106L167.192+253.106L167.192+266.517Z" opacity="1" fill="#ffffff"/>
<path d="M201.777+266.998C203.799+267.014+205.308+266.154+206.518+264.718L208.619+266.517L209.852+266.517L207.025+264.088C207.791+262.977+208.416+261.579+208.985+260.014L208.117+260.014C207.633+261.37+207.104+262.593+206.423+263.591L201.377+259.246C200.223+258.269+199.339+257.238+199.339+256.069C199.339+254.617+200.51+253.581+202.121+253.581C203.855+253.581+205.189+254.809+205.229+256.475L206.057+256.475C205.995+254.366+204.3+252.817+202.104+252.817C200.02+252.817+198.511+254.179+198.489+256.031C198.489+257.393+199.395+258.498+200.308+259.363C198.568+260.105+197.059+261.119+197.059+263.244C197.059+265.407+199.035+266.998+201.777+266.998ZM201.8+266.229C199.536+266.229+197.903+264.969+197.903+263.244C197.903+261.445+199.255+260.564+200.91+259.918L205.916+264.2C204.885+265.465+203.596+266.229+201.8+266.229Z" opacity="1" fill="#ffffff"/>
<path d="M232.65+266.517L233.501+266.517L233.501+253.869L238.484+253.869L238.484+253.106L227.667+253.106L227.667+253.869L232.65+253.869L232.65+266.517Z" opacity="1" fill="#ffffff"/>
<path d="M253.072+266.998C257.431+266.998+260.601+263.97+260.601+259.801C260.601+255.631+257.431+252.625+253.072+252.625C248.714+252.625+245.567+255.631+245.567+259.801C245.567+263.97+248.714+266.998+253.072+266.998ZM253.072+266.229C249.221+266.229+246.434+263.511+246.434+259.801C246.434+256.09+249.221+253.394+253.072+253.394C256.946+253.394+259.734+256.09+259.734+259.801C259.734+263.533+256.946+266.229+253.072+266.229Z" opacity="1" fill="#ffffff"/>
<path d="M269.153+266.517L270.021+266.517L270.021+260.719L273.551+260.719L278.861+266.517L279.948+266.517L274.604+260.703L275.229+260.703C278.095+260.682+279.993+259.171+279.993+256.912C279.993+254.558+278.112+253.106+275.088+253.106L269.153+253.106L269.153+266.517ZM270.021+259.956L270.021+253.869L275.088+253.869C277.611+253.869+279.12+255.001+279.12+256.912C279.12+258.77+277.571+259.956+275.088+259.956L270.021+259.956Z" opacity="1" fill="#ffffff"/>
<path d="M288.565+266.517L289.432+266.517L289.432+260.719L292.962+260.719L298.272+266.517L299.359+266.517L294.015+260.703L294.64+260.703C297.506+260.682+299.404+259.171+299.404+256.912C299.404+254.558+297.523+253.106+294.5+253.106L288.565+253.106L288.565+266.517ZM289.432+259.956L289.432+253.869L294.5+253.869C297.022+253.869+298.531+255.001+298.531+256.912C298.531+258.77+296.983+259.956+294.5+259.956L289.432+259.956Z" opacity="1" fill="#ffffff"/>
<path d="M307.976+266.517L308.843+266.517L308.843+253.106L307.976+253.106L307.976+266.517Z" opacity="1" fill="#ffffff"/>
</g>
</svg>
